<mxfile host="app.diagrams.net" agent="Mozilla/5.0 (Windows NT 10.0; Win64; x64) AppleWebKit/537.36 (KHTML, like Gecko) Chrome/128.0.0.0 Safari/537.36" version="24.7.12">
  <diagram name="Page-1" id="8OU0QZBIG2VrAC-fUaZR">
    <mxGraphModel dx="2064" dy="1078" grid="1" gridSize="10" guides="1" tooltips="1" connect="1" arrows="1" fold="1" page="1" pageScale="1" pageWidth="850" pageHeight="1100" math="0" shadow="0">
      <root>
        <mxCell id="0" />
        <mxCell id="1" parent="0" />
        <mxCell id="X_89ywGBN6a2kE4pXoAG-7" value="" style="whiteSpace=wrap;html=1;aspect=fixed;" vertex="1" parent="1">
          <mxGeometry x="397.5" y="20" width="980" height="980" as="geometry" />
        </mxCell>
        <mxCell id="X_89ywGBN6a2kE4pXoAG-8" value="" style="shape=umlActor;verticalLabelPosition=bottom;verticalAlign=top;html=1;outlineConnect=0;" vertex="1" parent="1">
          <mxGeometry x="200" y="290" width="90" height="180" as="geometry" />
        </mxCell>
        <mxCell id="X_89ywGBN6a2kE4pXoAG-12" value="" style="shape=umlActor;verticalLabelPosition=bottom;verticalAlign=top;html=1;outlineConnect=0;" vertex="1" parent="1">
          <mxGeometry x="1490" y="220" width="90" height="180" as="geometry" />
        </mxCell>
        <mxCell id="X_89ywGBN6a2kE4pXoAG-13" value="&lt;span style=&quot;font-size: 18px;&quot;&gt;&lt;b&gt;USER&lt;/b&gt;&lt;/span&gt;" style="text;html=1;align=center;verticalAlign=middle;whiteSpace=wrap;rounded=0;" vertex="1" parent="1">
          <mxGeometry x="1490" y="360" width="90" height="90" as="geometry" />
        </mxCell>
        <mxCell id="X_89ywGBN6a2kE4pXoAG-14" value="" style="ellipse;whiteSpace=wrap;html=1;" vertex="1" parent="1">
          <mxGeometry x="770" y="120" width="230" height="130" as="geometry" />
        </mxCell>
        <mxCell id="X_89ywGBN6a2kE4pXoAG-15" value="" style="ellipse;whiteSpace=wrap;html=1;" vertex="1" parent="1">
          <mxGeometry x="770" y="310" width="230" height="130" as="geometry" />
        </mxCell>
        <mxCell id="X_89ywGBN6a2kE4pXoAG-16" value="" style="ellipse;whiteSpace=wrap;html=1;" vertex="1" parent="1">
          <mxGeometry x="770" y="500" width="230" height="130" as="geometry" />
        </mxCell>
        <mxCell id="X_89ywGBN6a2kE4pXoAG-18" value="" style="endArrow=classic;html=1;rounded=0;exitX=0;exitY=0;exitDx=0;exitDy=0;" edge="1" parent="1" target="X_89ywGBN6a2kE4pXoAG-14">
          <mxGeometry width="50" height="50" relative="1" as="geometry">
            <mxPoint x="300" y="355" as="sourcePoint" />
            <mxPoint x="570" y="270" as="targetPoint" />
            <Array as="points">
              <mxPoint x="520" y="190" />
              <mxPoint x="580" y="190" />
            </Array>
          </mxGeometry>
        </mxCell>
        <mxCell id="X_89ywGBN6a2kE4pXoAG-19" value="" style="endArrow=classic;html=1;rounded=0;entryX=0;entryY=0.5;entryDx=0;entryDy=0;exitX=0;exitY=0.25;exitDx=0;exitDy=0;" edge="1" parent="1" target="X_89ywGBN6a2kE4pXoAG-15">
          <mxGeometry width="50" height="50" relative="1" as="geometry">
            <mxPoint x="300" y="377.5" as="sourcePoint" />
            <mxPoint x="620" y="370" as="targetPoint" />
          </mxGeometry>
        </mxCell>
        <mxCell id="X_89ywGBN6a2kE4pXoAG-21" value="&lt;font style=&quot;font-size: 20px;&quot;&gt;Melihat Tampilan&lt;/font&gt;" style="text;html=1;align=center;verticalAlign=middle;whiteSpace=wrap;rounded=0;" vertex="1" parent="1">
          <mxGeometry x="807.5" y="165" width="155" height="40" as="geometry" />
        </mxCell>
        <mxCell id="X_89ywGBN6a2kE4pXoAG-22" value="&lt;span style=&quot;font-size: 20px;&quot;&gt;Update Data&lt;/span&gt;" style="text;html=1;align=center;verticalAlign=middle;whiteSpace=wrap;rounded=0;" vertex="1" parent="1">
          <mxGeometry x="810" y="355" width="155" height="40" as="geometry" />
        </mxCell>
        <mxCell id="X_89ywGBN6a2kE4pXoAG-23" value="" style="endArrow=classic;html=1;rounded=0;exitX=0;exitY=0.75;exitDx=0;exitDy=0;" edge="1" parent="1">
          <mxGeometry width="50" height="50" relative="1" as="geometry">
            <mxPoint x="300" y="422.5" as="sourcePoint" />
            <mxPoint x="760" y="550" as="targetPoint" />
            <Array as="points" />
          </mxGeometry>
        </mxCell>
        <mxCell id="X_89ywGBN6a2kE4pXoAG-24" value="&lt;span style=&quot;font-size: 20px;&quot;&gt;Menerima Konfirmasi User&lt;/span&gt;" style="text;html=1;align=center;verticalAlign=middle;whiteSpace=wrap;rounded=0;" vertex="1" parent="1">
          <mxGeometry x="807.5" y="545" width="155" height="40" as="geometry" />
        </mxCell>
        <mxCell id="X_89ywGBN6a2kE4pXoAG-25" value="" style="ellipse;whiteSpace=wrap;html=1;" vertex="1" parent="1">
          <mxGeometry x="770" y="690" width="230" height="130" as="geometry" />
        </mxCell>
        <mxCell id="X_89ywGBN6a2kE4pXoAG-26" value="" style="ellipse;whiteSpace=wrap;html=1;" vertex="1" parent="1">
          <mxGeometry x="770" y="850" width="230" height="130" as="geometry" />
        </mxCell>
        <mxCell id="X_89ywGBN6a2kE4pXoAG-27" value="&lt;span style=&quot;font-size: 20px;&quot;&gt;Melihat Tampilan&lt;/span&gt;" style="text;html=1;align=center;verticalAlign=middle;whiteSpace=wrap;rounded=0;" vertex="1" parent="1">
          <mxGeometry x="817.5" y="735" width="155" height="40" as="geometry" />
        </mxCell>
        <mxCell id="X_89ywGBN6a2kE4pXoAG-28" value="" style="endArrow=classic;html=1;rounded=0;" edge="1" parent="1">
          <mxGeometry width="50" height="50" relative="1" as="geometry">
            <mxPoint x="1480" y="300" as="sourcePoint" />
            <mxPoint x="1010" y="730" as="targetPoint" />
            <Array as="points">
              <mxPoint x="1170" y="370" />
            </Array>
          </mxGeometry>
        </mxCell>
        <mxCell id="X_89ywGBN6a2kE4pXoAG-30" value="&lt;span style=&quot;font-size: 20px;&quot;&gt;Menghubungi Admin&lt;/span&gt;" style="text;html=1;align=center;verticalAlign=middle;whiteSpace=wrap;rounded=0;" vertex="1" parent="1">
          <mxGeometry x="790" y="890" width="190" height="40" as="geometry" />
        </mxCell>
        <mxCell id="X_89ywGBN6a2kE4pXoAG-32" value="" style="endArrow=classic;html=1;rounded=0;" edge="1" parent="1">
          <mxGeometry width="50" height="50" relative="1" as="geometry">
            <mxPoint x="1500" y="340" as="sourcePoint" />
            <mxPoint x="1010" y="880" as="targetPoint" />
            <Array as="points">
              <mxPoint x="1210" y="480" />
            </Array>
          </mxGeometry>
        </mxCell>
        <mxCell id="X_89ywGBN6a2kE4pXoAG-35" value="&lt;span style=&quot;font-size: 18px;&quot;&gt;&lt;b&gt;ADMIN&lt;/b&gt;&lt;/span&gt;" style="text;html=1;align=center;verticalAlign=middle;whiteSpace=wrap;rounded=0;" vertex="1" parent="1">
          <mxGeometry x="200" y="440" width="90" height="90" as="geometry" />
        </mxCell>
      </root>
    </mxGraphModel>
  </diagram>
</mxfile>
